<svg width="16" height="16" viewBox="0 0 16 16" fill="none" xmlns="http://www.w3.org/2000/svg">
<path fill-rule="evenodd" clip-rule="evenodd" d="M10 8.66683H8.66668V10.0002C8.66668 10.3668 8.36668 10.6668 8.00001 10.6668C7.63334 10.6668 7.33334 10.3668 7.33334 10.0002V8.66683H6.00001C5.63334 8.66683 5.33334 8.36683 5.33334 8.00016C5.33334 7.6335 5.63334 7.3335 6.00001 7.3335H7.33334V6.00016C7.33334 5.6335 7.63334 5.3335 8.00001 5.3335C8.36668 5.3335 8.66668 5.6335 8.66668 6.00016V7.3335H10C10.3667 7.3335 10.6667 7.6335 10.6667 8.00016C10.6667 8.36683 10.3667 8.66683 10 8.66683M8.00001 1.3335C4.32401 1.3335 1.33334 4.32416 1.33334 8.00016C1.33334 11.6762 4.32401 14.6668 8.00001 14.6668C11.676 14.6668 14.6667 11.6762 14.6667 8.00016C14.6667 4.32416 11.676 1.3335 8.00001 1.3335" fill="white"/>
</svg>
